# xmcd CD database file
#
# Track frame offsets:
#	150
#	29212
#	57115
#	89990
#	117782
#	138430
#	175087
#	203888
#	235292
#	262174
#
# Disc length: 3914 seconds
#
# Revision: 1
# Processed by: cddbd v1.5PL3 Copyright (c) Steve Scherf et al.
# Submitted via: CDex 1.51
#
DISCID=980f480a
DTITLE=Viva Creole - Goin' down to Mardi Gras
DYEAR=2001
DGENRE=Jazz
TTITLE0=Goin' down to Mardi Gras
TTITLE1=Sweet Geogia Brown
TTITLE2=Chimes Blues
TTITLE3=Mama Leni
TTITLE4=Out of Dixie
TTITLE5=How Long Blues
TTITLE6=Laughing Samba
TTITLE7=St. James Infirmary
TTITLE8=Who rolled the stone away
TTITLE9=Quand motait tu piti
EXTD=YEAR: 2001
EXTT0=
EXTT1=
EXTT2=
EXTT3=
EXTT4=
EXTT5=
EXTT6=
EXTT7=
EXTT8=
EXTT9=
PLAYORDER=
